<svg width="344" height="373" viewBox="0 0 344 373" fill="none" xmlns="http://www.w3.org/2000/svg">
<path d="M2.55375 166.359L2.19063 167.679L3.47168 168.161L100.461 204.661L100.699 204.75L100.953 204.756L136.822 205.645L106.953 230.716L106.777 230.864L106.653 231.058L46.9002 324.775L46.1928 325.884L47.2006 326.73L96.5614 368.162L97.8712 369.262L98.7906 367.82L158.543 274.104L158.648 273.939L158.707 273.753L171.088 234.969L182.687 273.727L182.746 273.924L182.855 274.098L242.608 368.8L243.517 370.241L244.831 369.157L295.058 327.725L296.088 326.875L295.363 325.753L234.744 232.037L234.625 231.853L234.459 231.711L206.26 207.619L242.181 206.729L242.433 206.723L242.669 206.635L340.524 170.135L341.826 169.649L341.441 168.314L322.39 102.22L321.944 100.673L320.433 101.227L223.443 136.74L223.209 136.826L223.015 136.983L193.69 160.718L204.624 119.793L204.675 119.602V119.405V3V1.5H203.175H141.691H140.191V3V119.405V119.607L140.244 119.801L151.131 159.665L120.991 135.015L120.793 134.853L120.553 134.766L22.6973 99.2521L21.1703 98.6979L20.7393 100.264L2.55375 166.359Z" stroke="#E1FF01" stroke-width="3"/>
</svg>
