<svg width="52" height="52" viewBox="0 0 52 52" fill="none" xmlns="http://www.w3.org/2000/svg">
<rect x="1.2998" y="0.899902" width="50.2" height="50.2" rx="25.1" fill="black"/>
<rect x="1.2998" y="0.899902" width="50.2" height="50.2" rx="25.1" stroke="#2B2B2B"/>
<path d="M26.3998 19.5134V16.3999M26.3998 35.5999V32.4864M32.8863 25.9999H35.9998M16.7998 25.9999H19.9133M30.9867 21.4135L33.1883 19.2119M19.6111 32.7881L21.8126 30.5866M30.9867 30.5863L33.1883 32.7879M19.6111 19.2117L21.8126 21.4132M29.9686 25.8733C29.9686 27.8616 28.3568 29.4733 26.3686 29.4733C24.3803 29.4733 22.7686 27.8616 22.7686 25.8733C22.7686 23.8851 24.3803 22.2733 26.3686 22.2733C28.3568 22.2733 29.9686 23.8851 29.9686 25.8733Z" stroke="white" stroke-width="2" stroke-linecap="round" stroke-linejoin="round"/>
</svg>
