<svg width="52" height="52" viewBox="0 0 52 52" fill="none" xmlns="http://www.w3.org/2000/svg">
<rect x="1.2998" y="0.5" width="50.2" height="50.2" rx="25.1" fill="black"/>
<rect x="1.2998" y="0.5" width="50.2" height="50.2" rx="25.1" stroke="#FF9595"/>
<path d="M26.3998 19.1135V16M26.3998 35.2V32.0865M32.8863 25.6H35.9998M16.7998 25.6H19.9133M30.9867 21.0136L33.1883 18.812M19.6111 32.3882L21.8126 30.1867M30.9867 30.1864L33.1883 32.388M19.6111 18.8118L21.8126 21.0133M29.9686 25.4734C29.9686 27.4617 28.3568 29.0734 26.3686 29.0734C24.3803 29.0734 22.7686 27.4617 22.7686 25.4734C22.7686 23.4852 24.3803 21.8734 26.3686 21.8734C28.3568 21.8734 29.9686 23.4852 29.9686 25.4734Z" stroke="white" stroke-width="2" stroke-linecap="round" stroke-linejoin="round"/>
</svg>
