<svg width="52" height="52" viewBox="0 0 52 52" fill="none" xmlns="http://www.w3.org/2000/svg">
<rect x="1.2998" y="0.900391" width="50.2" height="50.2" rx="25.1" fill="#1B2026"/>
<rect x="1.2998" y="0.900391" width="50.2" height="50.2" rx="25.1" stroke="#2B2B2B"/>
<path d="M26.3998 19.5139V16.4004M26.3998 35.6004V32.4869M32.8863 26.0004H35.9998M16.7998 26.0004H19.9133M30.9867 21.414L33.1883 19.2124M19.6111 32.7886L21.8126 30.587M30.9867 30.5868L33.1883 32.7884M19.6111 19.2121L21.8126 21.4137M29.9686 25.8738C29.9686 27.8621 28.3568 29.4738 26.3686 29.4738C24.3803 29.4738 22.7686 27.8621 22.7686 25.8738C22.7686 23.8856 24.3803 22.2738 26.3686 22.2738C28.3568 22.2738 29.9686 23.8856 29.9686 25.8738Z" stroke="white" stroke-width="2" stroke-linecap="round" stroke-linejoin="round"/>
</svg>
