<svg width="434" height="726" viewBox="0 0 434 726" fill="none" xmlns="http://www.w3.org/2000/svg">
<g filter="url(#filter0_dd_1_11400)">
<mask id="path-1-inside-1_1_11400" fill="white">
<path fill-rule="evenodd" clip-rule="evenodd" d="M44 0C30.7452 0 20 10.7451 20 24V352.17C27.6664 355.167 33.1049 362.699 33.1049 371.518C33.1049 380.337 27.6664 387.87 20 390.867V661.816C20 675.071 30.7452 685.816 44 685.816H389.958C403.213 685.816 413.958 675.071 413.958 661.816V390.525C406.726 387.326 401.673 380.02 401.673 371.518C401.673 363.017 406.726 355.711 413.958 352.512V24C413.958 10.7452 403.213 0 389.958 0H44Z"/>
</mask>
<path fill-rule="evenodd" clip-rule="evenodd" d="M44 0C30.7452 0 20 10.7451 20 24V352.17C27.6664 355.167 33.1049 362.699 33.1049 371.518C33.1049 380.337 27.6664 387.87 20 390.867V661.816C20 675.071 30.7452 685.816 44 685.816H389.958C403.213 685.816 413.958 675.071 413.958 661.816V390.525C406.726 387.326 401.673 380.02 401.673 371.518C401.673 363.017 406.726 355.711 413.958 352.512V24C413.958 10.7452 403.213 0 389.958 0H44Z" fill="#1B2026"/>
<path d="M20 352.17H19V352.853L19.636 353.102L20 352.17ZM20 390.867L19.636 389.935L19 390.184V390.867H20ZM413.958 390.525H414.958V389.874L414.363 389.611L413.958 390.525ZM413.958 352.512L414.363 353.426L414.958 353.163V352.512H413.958ZM21 24C21 11.2974 31.2975 1 44 1V-1C30.1929 -1 19 10.1929 19 24H21ZM21 352.17V24H19V352.17H21ZM19.636 353.102C26.9261 355.951 32.1049 363.119 32.1049 371.518H34.1049C34.1049 362.28 28.4068 354.382 20.364 351.239L19.636 353.102ZM32.1049 371.518C32.1049 379.918 26.9261 387.086 19.636 389.935L20.364 391.798C28.4068 388.655 34.1049 380.757 34.1049 371.518H32.1049ZM21 661.816V390.867H19V661.816H21ZM44 684.816C31.2974 684.816 21 674.519 21 661.816H19C19 675.623 30.1929 686.816 44 686.816V684.816ZM389.958 684.816H44V686.816H389.958V684.816ZM412.958 661.816C412.958 674.519 402.661 684.816 389.958 684.816V686.816C403.765 686.816 414.958 675.623 414.958 661.816H412.958ZM412.958 390.525V661.816H414.958V390.525H412.958ZM414.363 389.611C407.485 386.568 402.673 379.615 402.673 371.518H400.673C400.673 380.424 405.968 388.084 413.553 391.44L414.363 389.611ZM402.673 371.518C402.673 363.422 407.485 356.469 414.363 353.426L413.553 351.597C405.968 354.953 400.673 362.613 400.673 371.518H402.673ZM412.958 24V352.512H414.958V24H412.958ZM389.958 1C402.661 1 412.958 11.2975 412.958 24H414.958C414.958 10.1929 403.765 -1 389.958 -1V1ZM44 1H389.958V-1H44V1Z" fill="#1B2026" mask="url(#path-1-inside-1_1_11400)"/>
</g>
<defs>
<filter id="filter0_dd_1_11400" x="0" y="0" width="433.958" height="725.816" filterUnits="userSpaceOnUse" color-interpolation-filters="sRGB">
<feFlood flood-opacity="0" result="BackgroundImageFix"/>
<feColorMatrix in="SourceAlpha" type="matrix" values="0 0 0 0 0 0 0 0 0 0 0 0 0 0 0 0 0 0 127 0" result="hardAlpha"/>
<feMorphology radius="4" operator="erode" in="SourceAlpha" result="effect1_dropShadow_1_11400"/>
<feOffset dy="8"/>
<feGaussianBlur stdDeviation="4"/>
<feColorMatrix type="matrix" values="0 0 0 0 1 0 0 0 0 1 0 0 0 0 1 0 0 0 0.03 0"/>
<feBlend mode="normal" in2="BackgroundImageFix" result="effect1_dropShadow_1_11400"/>
<feColorMatrix in="SourceAlpha" type="matrix" values="0 0 0 0 0 0 0 0 0 0 0 0 0 0 0 0 0 0 127 0" result="hardAlpha"/>
<feMorphology radius="4" operator="erode" in="SourceAlpha" result="effect2_dropShadow_1_11400"/>
<feOffset dy="20"/>
<feGaussianBlur stdDeviation="12"/>
<feColorMatrix type="matrix" values="0 0 0 0 1 0 0 0 0 1 0 0 0 0 1 0 0 0 0.05 0"/>
<feBlend mode="normal" in2="effect1_dropShadow_1_11400" result="effect2_dropShadow_1_11400"/>
<feBlend mode="normal" in="SourceGraphic" in2="effect2_dropShadow_1_11400" result="shape"/>
</filter>
</defs>
</svg>
