<?xml version="1.0" encoding="UTF-8"?>
<svg version="1.1" viewBox="0 0 1195 2048" width="405" height="694" xmlns="http://www.w3.org/2000/svg">
<path transform="translate(21,1024)" d="m0 0h1162v16l-11 7-10 9-7 10-5 12-2 9v19l4 14 7 13 7 8 13 9 4 3v806l-3 16-8 17-12 14-13 9-11 5-11 3-8 1h-1029l-15-2-13-5-10-6-12-11-9-12-5-12-3-11-1-8v-796l1-7 9-6 11-8 8-10 6-12 3-13v-18l-3-12-6-12-7-9-9-8-12-7-1-1v-10z" fill="#ECFA01"/>
<path transform="translate(21,355)" d="m0 0h1162v45l-1 1h-1161l-1-1v-44z" fill="#ECFA01"/>
<path transform="translate(71,2020)" d="m0 0h1061l-2 2-13 2h-1029l-15-2z" fill="#0C0909"/>
<path transform="translate(21,1024)" d="m0 0h1162v16l-3 1-1-13-1158-1z" fill="#0C090A"/>
<path transform="translate(1180,1152)" d="m0 0 3 1v806l-2 12h-1z" fill="#0C090A"/>
</svg>
